<?xml version="1.0" standalone="no"?>
<!DOCTYPE svg PUBLIC "-//W3C//DTD SVG 20010904//EN"
 "http://www.w3.org/TR/2001/REC-SVG-20010904/DTD/svg10.dtd">
<svg version="1.0" xmlns="http://www.w3.org/2000/svg"
 width="600.000000pt" height="776.000000pt" viewBox="0 0 600.000000 776.000000"
 preserveAspectRatio="xMidYMid meet">
<g transform="translate(0.000000,776.000000) scale(0.100000,-0.100000)"
fill="#000000" stroke="none">
<path d="M3560 5504 c-25 -7 -54 -18 -65 -23 -11 -5 -36 -15 -55 -22 -186 -68
-359 -280 -390 -479 -7 -41 -16 -86 -22 -100 -7 -19 -6 -27 6 -36 34 -24 244
29 302 77 33 27 142 137 164 165 94 117 179 424 120 431 -8 0 -35 -5 -60 -13z"/>
<path d="M2415 4723 c-65 -5 -165 -23 -183 -33 -10 -4 -51 -24 -93 -44 -83
-40 -173 -105 -216 -157 -15 -19 -34 -40 -40 -47 -50 -53 -134 -229 -157 -332
-10 -41 -22 -86 -26 -100 -13 -37 -20 -340 -10 -455 11 -128 53 -304 142 -595
11 -36 25 -83 31 -105 7 -22 17 -44 24 -48 7 -4 28 -33 46 -65 105 -178 336
-441 390 -442 7 -1 30 -9 52 -20 48 -23 127 -26 187 -6 24 8 68 19 98 26 30 7
60 16 65 21 6 4 56 20 110 34 144 38 311 23 452 -41 17 -8 37 -14 45 -14 7 0
26 -7 41 -15 169 -88 390 -28 532 144 34 42 149 185 172 216 23 29 93 145 108
177 9 20 23 42 31 49 8 6 14 16 14 22 0 5 14 39 30 74 17 34 30 70 30 78 0 8
5 15 10 15 20 0 9 37 -17 62 -16 14 -54 42 -86 62 -112 71 -257 260 -257 334
0 10 -4 22 -10 28 -41 41 -42 423 -1 478 4 6 13 30 20 53 14 52 76 146 129
199 45 44 50 48 113 92 67 45 66 50 -14 135 -134 139 -282 216 -353 182 -34
-16 -36 -16 -49 2 -16 22 -234 32 -307 14 -73 -17 -182 -47 -198 -54 -69 -28
-272 -76 -287 -68 -101 53 -464 157 -518 149 -5 -1 -28 -3 -50 -5z m1323 -112
c-3 -9 41 -74 101 -146 48 -57 48 -72 0 -143 -16 -23 -29 -45 -29 -48 0 -15
-66 -84 -89 -92 -14 -6 -66 -13 -116 -15 -69 -4 -115 -13 -200 -42 -60 -21
-115 -38 -122 -38 -7 0 -15 -7 -18 -16 -5 -12 -8 -13 -14 -2 -6 10 -15 7 -35
-14 -14 -14 -30 -24 -35 -20 -13 8 -20 -20 -23 -98 -2 -38 -6 -71 -10 -73 -3
-2 -74 -4 -157 -5 l-151 0 0 -30 0 -29 139 0 c82 0 141 -4 143 -10 2 -5 2 -43
0 -85 l-4 -75 -121 -2 c-67 0 -129 -1 -137 -2 -9 -1 -16 -13 -18 -33 l-3 -33
160 0 161 0 0 -85 0 -85 -264 0 -264 0 -6 73 c-2 39 -4 77 -4 82 0 6 2 117 5
248 l4 237 237 0 238 0 210 208 c263 259 296 289 399 366 24 18 26 19 23 7z
m-1147 -195 c260 -85 312 -135 159 -150 -36 -4 -96 -16 -133 -28 -62 -19 -75
-20 -145 -9 -42 7 -126 18 -186 26 -147 18 -161 49 -48 103 31 15 62 33 67 40
35 44 180 53 286 18z m649 -361 c0 -3 -2 -5 -5 -5 -3 0 -5 2 -5 5 0 3 2 5 5 5
3 0 5 -2 5 -5z m-857 -31 c59 -10 137 -63 161 -109 45 -88 29 -217 -35 -286
l-30 -32 55 -87 c84 -131 88 -121 -50 -118 l-119 3 -43 83 c-39 75 -46 82 -72
82 l-30 0 -1 -70 c-1 -38 -2 -76 -3 -82 -1 -9 -32 -14 -108 -16 l-108 -3 0
321 0 320 173 0 c94 0 189 -3 210 -6z m1269 -21 c250 -115 245 -484 -8 -583
-54 -22 -75 -24 -243 -24 l-184 -1 -4 318 -5 319 198 -4 c178 -3 204 -6 246
-25z m-1052 -468 c0 -3 -2 -5 -5 -5 -3 0 -5 2 -5 5 0 3 2 5 5 5 3 0 5 -2 5 -5z
m-363 -289 c53 -107 57 -130 25 -132 -16 -1 -27 6 -34 22 -15 33 -107 36 -115
4 -4 -14 -14 -20 -34 -20 -36 0 -38 -10 21 115 64 138 75 138 137 11z m250 59
c49 -56 8 -125 -73 -125 -42 0 -44 -1 -44 -30 0 -26 -3 -30 -29 -30 l-29 0 3
78 c1 42 3 92 4 111 l1 33 71 -4 c64 -3 74 -7 96 -33z m185 25 c97 -27 69
-150 -33 -150 -37 0 -39 -2 -39 -30 0 -27 -3 -30 -30 -30 l-30 0 0 103 c0 57
3 107 7 110 10 10 83 8 125 -3z m148 -80 l0 -90 55 0 c48 0 55 -2 55 -20 0
-18 -7 -20 -80 -20 l-80 0 0 110 0 110 25 0 c25 0 25 -1 25 -90z m300 65 c0
-24 -3 -25 -55 -25 -48 0 -55 -2 -55 -20 0 -17 7 -20 50 -20 43 0 50 -3 50
-20 0 -21 -5 -23 -62 -20 -35 1 -38 -1 -38 -24 0 -25 2 -26 61 -26 57 0 60 -1
57 -22 -2 -13 -9 -23 -15 -22 -7 1 -46 2 -87 3 -65 1 -74 3 -71 19 2 9 4 59 4
110 l1 92 80 0 c79 0 80 0 80 -25z m190 -27 l0 -53 49 53 c29 31 58 52 70 52
30 0 26 -14 -14 -59 -43 -48 -43 -45 5 -102 48 -57 48 -59 11 -59 -22 0 -37
10 -61 40 -36 46 -60 41 -60 -11 0 -25 -4 -29 -27 -29 l-28 0 3 110 c3 109 3
110 28 110 22 0 24 -4 24 -52z m348 25 c3 -22 0 -23 -57 -23 -54 0 -61 -2 -61
-20 0 -17 7 -20 50 -20 46 0 50 -2 50 -24 0 -22 -3 -23 -50 -18 -49 4 -50 4
-50 -22 0 -25 2 -26 61 -26 57 0 60 -1 57 -22 -2 -13 -9 -23 -15 -22 -7 1 -44
2 -83 3 l-70 1 0 110 0 111 83 -3 c76 -3 82 -5 85 -25z m273 -204 c55 -44 74
-91 58 -148 -15 -55 -149 -244 -232 -329 -124 -126 -195 -137 -428 -63 -232
73 -370 82 -539 37 -352 -95 -377 -90 -549 104 -41 47 -91 97 -111 111 -40 29
-169 81 -181 73 -31 -19 11 33 97 121 38 40 147 117 112 80 -3 -3 0 -14 8 -23
9 -9 31 -38 50 -64 49 -67 82 -75 314 -72 131 2 203 -2 245 -12 90 -21 267
-18 335 6 67 23 82 24 157 6 100 -25 286 -30 347 -10 49 16 226 176 226 205 0
20 54 7 91 -22z"/>
<path d="M2660 3713 l0 -283 235 0 235 0 0 50 0 50 -162 2 -163 3 -2 63 -3 62
145 0 145 0 0 50 0 50 -140 0 -140 0 0 65 0 65 155 0 155 0 0 49 0 49 -62 7
c-35 4 -138 5 -230 3 l-168 -3 0 -282z m417 260 c-4 -3 -10 -3 -14 0 -3 4 0 7
7 7 7 0 10 -3 7 -7z m-32 -23 c-3 -5 -12 -10 -18 -10 -7 0 -6 4 3 10 19 12 23
12 15 0z m-45 -45 c0 -3 -2 -5 -5 -5 -3 0 -5 2 -5 5 0 3 2 5 5 5 3 0 5 -2 5
-5z m-172 -175 c-7 -11 -17 -20 -21 -20 -5 0 -6 -10 -3 -22 3 -13 3 -18 0 -11
-4 8 -13 5 -29 -9 -14 -12 -21 -26 -18 -32 3 -6 3 -8 -2 -4 -4 4 -13 1 -19 -7
-6 -8 -24 -16 -40 -19 -27 -5 -22 2 46 69 73 73 113 98 86 55z"/>
<path d="M2040 3711 l0 -281 70 0 70 0 0 80 0 80 63 0 63 0 37 -80 36 -80 81
0 80 0 -19 38 c-11 20 -35 60 -54 87 l-34 50 42 40 c97 91 80 266 -32 321 -32
16 -65 19 -220 22 l-183 3 0 -280z m313 167 c54 -28 65 -106 23 -155 -23 -26
-31 -28 -110 -32 l-86 -3 0 101 0 101 76 0 c41 0 85 -5 97 -12z"/>
<path d="M2220 3795 l0 -65 59 0 c51 0 62 3 75 22 41 58 4 108 -79 108 l-55 0
0 -65z"/>
<path d="M3250 3710 l0 -282 173 4 c155 3 177 6 225 27 204 92 208 398 6 501
-46 23 -61 25 -226 28 l-178 4 0 -282z m307 165 c71 -29 112 -120 94 -207 -22
-100 -83 -142 -196 -136 l-60 3 -3 178 -2 177 65 0 c35 0 82 -7 102 -15z"/>
<path d="M3430 3710 l0 -140 59 0 c70 0 115 34 127 96 20 109 -33 184 -131
184 l-55 0 0 -140z"/>
<path d="M2151 3239 c-6 -18 -11 -34 -11 -35 0 -2 14 -4 30 -4 33 0 36 7 18
45 -15 33 -24 32 -37 -6z"/>
<path d="M2370 3256 c0 -33 3 -36 28 -36 66 1 75 63 10 68 -37 3 -38 3 -38
-32z"/>
<path d="M2592 3258 c3 -38 53 -53 77 -24 24 29 4 56 -40 56 -39 0 -40 -1 -37
-32z"/>
</g>
</svg>
